{
  "accessors": [
    {
      "bufferView": 2,
      "componentType": 5126,
      "count": 1915,
      "max": [
        3.756181240081787,
        6.73207950592041,
        3.5543060302734375
      ],
      "min": [
        -3.7561817169189453,
        1.7538657188415527,
        -3.729426860809326
      ],
      "type": "VEC3"
    },
    {
      "bufferView": 2,
      "byteOffset": 22980,
      "componentType": 5126,
      "count": 1915,
      "type": "VEC3"
    },
    {
      "bufferView": 3,
      "componentType": 5126,
      "count": 1915,
      "type": "VEC4"
    },
    {
      "bufferView": 1,
      "componentType": 5126,
      "count": 1915,
      "type": "VEC2"
    },
    {
      "bufferView": 0,
      "componentType": 5125,
      "count": 10776,
      "type": "SCALAR"
    },
    {
      "bufferView": 2,
      "byteOffset": 45960,
      "componentType": 5126,
      "count": 1915,
      "max": [
        3.756181240081787,
        6.73207950592041,
        3.5543060302734375
      ],
      "min": [
        -3.7561817169189453,
        1.7538657188415527,
        -3.729426860809326
      ],
      "type": "VEC3"
    },
    {
      "bufferView": 2,
      "byteOffset": 68940,
      "componentType": 5126,
      "count": 1915,
      "type": "VEC3"
    },
    {
      "bufferView": 3,
      "byteOffset": 30640,
      "componentType": 5126,
      "count": 1915,
      "type": "VEC4"
    },
    {
      "bufferView": 1,
      "byteOffset": 15320,
      "componentType": 5126,
      "count": 1915,
      "type": "VEC2"
    },
    {
      "bufferView": 0,
      "byteOffset": 43104,
      "componentType": 5125,
      "count": 10776,
      "type": "SCALAR"
    }
  ],
  "asset": {
    "generator": "fab-model-conversion",
    "version": "2.0"
  },
  "bufferViews": [
    {
      "buffer": 0,
      "byteLength": 86208,
      "target": 34963
    },
    {
      "buffer": 0,
      "byteLength": 30640,
      "byteOffset": 86208,
      "byteStride": 8,
      "target": 34962
    },
    {
      "buffer": 0,
      "byteLength": 91920,
      "byteOffset": 116848,
      "byteStride": 12,
      "target": 34962
    },
    {
      "buffer": 0,
      "byteLength": 61280,
      "byteOffset": 208768,
      "byteStride": 16,
      "target": 34962
    }
  ],
  "buffers": [
    {
      "byteLength": 270048,
      "uri": "scene.bin"
    }
  ],
  "images": [
    {
      "uri": "textures/BigSlime1_baseColor.png"
    },
    {
      "uri": "textures/BigSlime1_metallicRoughness.png"
    },
    {
      "uri": "textures/BigSlime1_emissive.png"
    },
    {
      "uri": "textures/BigSlime1_normal.png"
    },
    {
      "uri": "textures/SmallSlime1_baseColor.png"
    },
    {
      "uri": "textures/SmallSlime1_metallicRoughness.png"
    },
    {
      "uri": "textures/SmallSlime1_emissive.png"
    },
    {
      "uri": "textures/SmallSlime1_normal.png"
    }
  ],
  "materials": [
    {
      "alphaMode": "BLEND",
      "doubleSided": true,
      "emissiveFactor": [
        1.0,
        1.0,
        1.0
      ],
      "emissiveTexture": {
        "index": 2
      },
      "name": "BigSlime1",
      "normalTexture": {
        "index": 3
      },
      "occlusionTexture": {
        "index": 1
      },
      "pbrMetallicRoughness": {
        "baseColorTexture": {
          "index": 0
        },
        "metallicRoughnessTexture": {
          "index": 1
        },
        "roughnessFactor": 0.6
      }
    },
    {
      "doubleSided": true,
      "emissiveFactor": [
        1.0,
        1.0,
        1.0
      ],
      "emissiveTexture": {
        "index": 6
      },
      "name": "SmallSlime1",
      "normalTexture": {
        "index": 7
      },
      "occlusionTexture": {
        "index": 5
      },
      "pbrMetallicRoughness": {
        "baseColorTexture": {
          "index": 4
        },
        "metallicRoughnessTexture": {
          "index": 5
        },
        "roughnessFactor": 0.6
      }
    }
  ],
  "meshes": [
    {
      "name": "BigSlime_BigSlime1_0",
      "primitives": [
        {
          "attributes": {
            "NORMAL": 1,
            "POSITION": 0,
            "TANGENT": 2,
            "TEXCOORD_0": 3
          },
          "indices": 4,
          "material": 0,
          "mode": 4
        }
      ]
    },
    {
      "name": "SmallSlime_SmallSlime1_0",
      "primitives": [
        {
          "attributes": {
            "NORMAL": 6,
            "POSITION": 5,
            "TANGENT": 7,
            "TEXCOORD_0": 8
          },
          "indices": 9,
          "material": 1,
          "mode": 4
        }
      ]
    }
  ],
  "nodes": [
    {
      "children": [
        1
      ],
      "matrix": [
        1.0,
        0.0,
        0.0,
        0.0,
        0.0,
        2.220446049250313e-16,
        -1.0,
        0.0,
        0.0,
        1.0,
        2.220446049250313e-16,
        0.0,
        0.0,
        0.0,
        0.0,
        1.0
      ],
      "name": "Sketchfab_model"
    },
    {
      "children": [
        2
      ],
      "matrix": [
        0.009999999776482582,
        0.0,
        0.0,
        0.0,
        0.0,
        0.0,
        0.009999999776482582,
        0.0,
        0.0,
        -0.009999999776482582,
        0.0,
        0.0,
        0.0,
        0.0,
        0.0,
        1.0
      ],
      "name": "fbed79c0316c4b61b957c6dbf8906fe4.fbx"
    },
    {
      "children": [
        3
      ],
      "name": "RootNode"
    },
    {
      "children": [
        4,
        6
      ],
      "name": "Slime"
    },
    {
      "children": [
        5
      ],
      "matrix": [
        1.0,
        0.0,
        0.0,
        0.0,
        0.0,
        1.0,
        0.0,
        0.0,
        0.0,
        0.0,
        1.0,
        0.0,
        2.384185791015625e-07,
        -2.0469777584075928,
        0.08756041526794434,
        1.0
      ],
      "name": "BigSlime"
    },
    {
      "mesh": 0,
      "name": "BigSlime_BigSlime1_0"
    },
    {
      "children": [
        7
      ],
      "matrix": [
        0.9030849933624268,
        0.0,
        0.0,
        0.0,
        0.0,
        0.9030849933624268,
        0.0,
        0.0,
        0.0,
        0.0,
        0.9030849933624268,
        0.0,
        2.153122409254138e-07,
        -1.6357699632644653,
        0.07907449454069138,
        1.0
      ],
      "name": "SmallSlime"
    },
    {
      "mesh": 1,
      "name": "SmallSlime_SmallSlime1_0"
    }
  ],
  "samplers": [
    {
      "magFilter": 9729,
      "minFilter": 9987,
      "wrapS": 10497,
      "wrapT": 10497
    }
  ],
  "scene": 0,
  "scenes": [
    {
      "name": "Sketchfab_Scene",
      "nodes": [
        0
      ]
    }
  ],
  "textures": [
    {
      "sampler": 0,
      "source": 0
    },
    {
      "sampler": 0,
      "source": 1
    },
    {
      "sampler": 0,
      "source": 2
    },
    {
      "sampler": 0,
      "source": 3
    },
    {
      "sampler": 0,
      "source": 4
    },
    {
      "sampler": 0,
      "source": 5
    },
    {
      "sampler": 0,
      "source": 6
    },
    {
      "sampler": 0,
      "source": 7
    }
  ]
}
